IKResults
version=1
nRows=13
nColumns=40
inDegrees=yes

Units are S.I. units (second, meters, Newtons, ...)
Angles are in degrees.

endheader
time	pelvis_tilt	pelvis_list	pelvis_rotation	pelvis_tx	pelvis_ty	pelvis_tz	hip_flexion_r	hip_adduction_r	hip_rotation_r	knee_angle_r	knee_angle_r_beta	ankle_angle_r	subtalar_angle_r	mtp_angle_r	hip_flexion_l	hip_adduction_l	hip_rotation_l	knee_angle_l	knee_angle_l_beta	ankle_angle_l	subtalar_angle_l	mtp_angle_l	lumbar_extension	lumbar_bending	lumbar_rotation	arm_flex_r	arm_add_r	arm_rot_r	elbow_flex_r	pro_sup_r	wrist_flex_r	wrist_dev_r	arm_flex_l	arm_add_l	arm_rot_l	elbow_flex_l	pro_sup_l	wrist_flex_l	wrist_dev_l
      0.27000000	     12.92920958	      1.50578072	      0.88704936	     -0.48772561	      0.92485159	     -1.02762247	    -24.43859792	      3.23915558	     -6.31255478	    -14.94543053	     -0.26084697	     15.29533555	     -4.36894482	     -3.09716657	     12.16196469	      0.63417321	     12.90699526	    -27.97538515	     -0.48826258	      9.43203308	      7.76542900	      3.38044712	    -23.01824302	     -2.82789181	      1.66493515	     -1.68698963	    -13.05110840	     -5.27665586	     53.57424244	     89.95437384	      0.00000000	      0.00000000	     -4.15751043	      8.30165539	     19.26252829	     13.50425867	     89.95437384	      0.00000000	      0.00000000
      0.28000000	     13.24214428	      1.75095969	      0.38086397	     -0.47366427	      0.92306274	     -1.02769686	    -25.69244870	      2.75242401	     -6.37433024	    -15.04385553	     -0.26256481	     15.25477961	     -4.09406899	     -3.47312039	     12.03329400	      0.62222716	     15.80612405	    -25.03305780	     -0.43690928	      8.30389599	      4.29632987	      1.72960322	    -23.30807344	     -3.26988927	      1.99344047	     -1.64696299	    -13.25999860	     -5.21373073	     55.28014990	     89.95437384	      0.00000000	      0.00000000	     -5.02957230	      8.34756652	     20.22987813	     12.91737570	     89.95437384	      0.00000000	      0.00000000
      0.29000000	     12.72850592	      1.53742889	      0.65045839	     -0.46042982	      0.91988717	     -1.02880666	    -25.85822680	      3.04288125	     -6.58579578	    -15.42719699	     -0.26925538	     15.33626361	     -4.18373718	     -3.50030496	     13.25922899	      0.62156230	     16.58151056	    -22.94692503	     -0.40049940	      7.99963291	      3.38644915	      1.52267605	    -22.76686803	     -2.94717907	      1.85449019	     -1.62319531	    -13.54852018	     -5.09544256	     56.82136878	     89.95437384	      0.00000000	      0.00000000	     -5.94189361	      8.40850316	     20.33694394	     12.48188855	     89.95437384	      0.00000000	      0.00000000
      0.30000000	     13.29837544	      2.29772051	     -0.12056134	     -0.44575912	      0.91867074	     -1.02931224	    -27.13076435	      1.77420087	     -6.62357976	    -16.15817488	     -0.28201335	     15.31872571	     -3.84193675	     -3.83603218	     12.47142560	     -0.06016884	     19.94051532	    -20.04411263	     -0.34983576	      6.41352310	     -0.86601365	      0.23484371	    -23.26476434	     -3.96049884	      2.25617993	     -1.67942098	    -13.68421712	     -5.16265451	     58.30742053	     89.95437384	      0.00000000	      0.00000000	     -6.63178891	      8.45143070	     21.23786481	     11.67343875	     89.95437384	      0.00000000	      0.00000000
      0.31000000	     13.04011076	      2.15037854	     -0.05933440	     -0.43191643	      0.91608794	     -1.03061297	    -27.39675595	      1.81295648	     -6.40837254	    -17.00875763	     -0.29685882	     15.13011654	     -3.67980980	     -3.94195898	     13.19192373	     -0.12702011	     20.76267829	    -18.56017528	     -0.32393617	      6.48725014	     -2.27377253	     -0.18633779	    -22.95191395	     -3.73740634	      2.28390233	     -1.76682776	    -14.08354662	     -4.94680086	     59.67817192	     89.95437384	      0.00000000	      0.00000000	     -7.45194478	      8.44504691	     21.41360956	     11.22696402	     89.95437384	      0.00000000	      0.00000000
      0.32000000	     13.30209630	      2.51375032	     -0.80706717	     -0.41670952	      0.91445047	     -1.03097040	    -28.07331650	      0.80261881	     -6.59155896	    -18.20296733	     -0.31770171	     15.05152686	     -2.19605822	     -5.08954184	     13.18225689	     -0.12167999	     24.51478623	    -17.76557772	     -0.31006782	      5.70356752	     -6.75674354	     -2.84448195	    -22.99911155	     -4.34929787	      2.78279874	     -1.90502773	    -14.27049429	     -4.85357556	     60.81973821	     89.95437384	      0.00000000	      0.00000000	     -8.24041044	      8.44262336	     22.38088341	     10.74464717	     89.95437384	      0.00000000	      0.00000000
      0.33000000	     13.12806199	      2.54127608	     -0.98381506	     -0.40208540	      0.91248060	     -1.03179927	    -28.26872727	      0.54334825	     -6.15986108	    -19.32882889	     -0.33735170	     14.41522956	     -2.30712109	     -5.11515600	     13.60178320	     -0.38124897	     24.80065223	    -17.12617535	     -0.29890815	      6.66714409	     -7.05393683	     -3.10147015	    -22.67647793	     -4.44221418	      2.98840629	     -2.13737332	    -14.47456973	     -4.79293953	     61.83468712	     89.95437384	      0.00000000	      0.00000000	     -8.98417188	      8.50167857	     22.47947984	     10.43553544	     89.95437384	      0.00000000	      0.00000000
      0.34000000	     13.15112541	      2.75218804	     -1.51955851	     -0.38694793	      0.91119552	     -1.03231278	    -28.55637106	     -0.08150720	     -5.40304428	    -20.67479148	     -0.36084318	     13.63776607	     -2.35572893	     -5.27322511	     13.57675484	     -0.74135772	     25.38490816	    -16.72447385	     -0.29189713	      7.42069971	     -7.02168613	     -3.47468135	    -22.49386502	     -4.84247219	      3.41616251	     -2.37833326	    -14.56938450	     -4.82352203	     62.57206236	     89.95437384	      0.00000000	      0.00000000	     -9.64318010	      8.54726027	     22.87992748	     10.11805652	     89.95437384	      0.00000000	      0.00000000
      0.35000000	     13.12231835	      2.71456635	     -1.86073970	     -0.37143871	      0.91002719	     -1.03258825	    -28.69535730	     -0.37302108	     -4.82110382	    -22.16545977	     -0.38686025	     12.45411714	     -2.29022097	     -5.24975020	     13.59030109	     -0.80640305	     25.12065849	    -16.93043978	     -0.29549192	      7.95531720	     -6.66372359	     -3.60500940	    -22.21513993	     -4.97572702	      3.70899187	     -2.66838432	    -14.63569937	     -4.72188261	     63.09847569	     89.95437384	      0.00000000	      0.00000000	    -10.37529648	      8.63848779	     22.98605442	      9.93359674	     89.95437384	      0.00000000	      0.00000000
      0.36000000	     13.13965370	      2.68434625	     -2.28744686	     -0.35539492	      0.90923227	     -1.03275631	    -28.79582073	     -0.70912088	     -4.16407831	    -23.78575878	     -0.41513981	     10.93704097	     -2.29214166	     -5.17674554	     13.40818169	     -0.84055084	     24.64338492	    -17.47315953	     -0.30496416	      8.31712239	     -5.84148696	     -3.67066680	    -21.91365017	     -5.14773988	      4.07206177	     -3.04642420	    -14.64074017	     -4.65993530	     63.39037454	     89.95437384	      0.00000000	      0.00000000	    -11.03321980	      8.72831264	     23.07014884	      9.72628464	     89.95437384	      0.00000000	      0.00000000
      0.37000000	     13.20726084	      2.61679482	     -2.80265421	     -0.33872038	      0.90884628	     -1.03276388	    -28.87234415	     -1.01833288	     -3.34145533	    -25.48983549	     -0.44488156	      9.04417157	     -2.39260443	     -5.06858426	     12.97485766	     -0.86734113	     23.65476859	    -18.19046856	     -0.31748357	      8.50699394	     -4.61858436	     -3.72327486	    -21.57825313	     -5.31579541	      4.50776471	     -3.52582832	    -14.59199487	     -4.61177392	     63.48127619	     89.95437384	      0.00000000	      0.00000000	    -11.65297788	      8.81897792	     23.14565269	      9.47951596	     89.95437384	      0.00000000	      0.00000000
      0.38000000	     13.26008184	      2.46748290	     -3.13692708	     -0.32191440	      0.90879582	     -1.03278865	    -28.81945168	     -1.04613749	     -2.41540100	    -27.28695135	     -0.47624714	      6.47488770	     -3.77650294	     -5.11165589	     12.36055683	     -1.10980675	     21.43660777	    -18.77367401	     -0.32766242	      8.45526015	     -0.97620194	     -4.03244809	    -21.25095371	     -5.35766702	      4.79175000	     -4.03430393	    -14.41163121	     -4.67268605	     63.35182836	     89.95437384	      0.00000000	      0.00000000	    -12.08701083	      8.92636481	     23.36710021	      9.14469075	     89.95437384	      0.00000000	      0.00000000
      0.39000000	     13.52857770	      2.36400324	     -3.20357180	     -0.30488538	      0.90923752	     -1.03330269	    -28.68748448	     -1.13360757	     -2.24558265	    -29.59726052	     -0.51656965	      4.13421974	     -3.50872648	     -4.81225449	     11.94290840	     -1.00742173	     21.27686645	    -20.32242118	     -0.35469316	      6.55506872	      0.21844182	     -3.74388760	    -21.18293461	     -5.37239800	      4.57452373	     -4.37265605	    -14.20495985	     -4.47009297	     62.97644522	     89.95437384	      0.00000000	      0.00000000	    -12.81865243	      9.00629898	     23.10113328	      9.35715699	     89.95437384	      0.00000000	      0.00000000
